<svg xmlns:dc="http://purl.org/dc/elements/1.1/" xmlns:cc="http://creativecommons.org/ns#" xmlns:rdf="http://www.w3.org/1999/02/22-rdf-syntax-ns#" xmlns:svg="http://www.w3.org/2000/svg" xmlns="http://www.w3.org/2000/svg" xmlns:sodipodi="http://sodipodi.sourceforge.net/DTD/sodipodi-0.dtd" xmlns:inkscape="http://www.inkscape.org/namespaces/inkscape" viewBox="0 0 16.933333 21.1666675" version="1.1" x="0px" y="0px"><g transform="translate(0,-280.06665)"><path style="color:#000000;font-style:normal;font-variant:normal;font-weight:normal;font-stretch:normal;font-size:medium;line-height:normal;font-family:sans-serif;font-variant-ligatures:normal;font-variant-position:normal;font-variant-caps:normal;font-variant-numeric:normal;font-variant-alternates:normal;font-feature-settings:normal;text-indent:0;text-align:start;text-decoration:none;text-decoration-line:none;text-decoration-style:solid;text-decoration-color:#000000;letter-spacing:normal;word-spacing:normal;text-transform:none;writing-mode:lr-tb;direction:ltr;text-orientation:mixed;dominant-baseline:auto;baseline-shift:baseline;text-anchor:start;white-space:normal;shape-padding:0;clip-rule:nonzero;display:inline;overflow:visible;visibility:visible;opacity:1;isolation:auto;mix-blend-mode:normal;color-interpolation:sRGB;color-interpolation-filters:linearRGB;solid-color:#000000;solid-opacity:1;vector-effect:none;fill:#000000;fill-opacity:1;fill-rule:nonzero;stroke:none;stroke-width:0.5291667;stroke-linecap:round;stroke-linejoin:round;stroke-miterlimit:4;stroke-dasharray:none;stroke-dashoffset:0;stroke-opacity:1;color-rendering:auto;image-rendering:auto;shape-rendering:auto;text-rendering:auto;enable-background:accumulate" d="m 4.2333248,281.65361 c -1.3146378,0 -2.3807339,1.0661 -2.3807339,2.38073 v 2.91146 H 0.79374188 c -0.146122,10e-6 -0.26457299,0.11846 -0.264583,0.26458 v 1.5875 c 1.501e-5,0.14612 0.11846399,0.26457 0.264583,0.26458 H 1.3663159 l 1.019059,5.6038 c 0.08438,0.464 0.4063999,0.7462 0.7896171,0.7462 h 10.583334 c 0.442715,0 0.716591,-0.34417 0.789616,-0.7462 l 0.240295,-1.32292 c 0.07753,-0.35675 -0.467391,-0.45578 -0.520382,-0.0946 l -0.240813,1.3224 c -0.03468,0.19042 -0.129159,0.31212 -0.268716,0.31212 H 3.174992 c -0.156242,0 -0.2412711,-0.16116 -0.2687161,-0.31212 l -1.00149,-5.50871 h 2.7476339 l 3.627686,3.62614 c 0.1032089,0.10259 0.2698959,0.10259 0.3731051,0 l 3.6276861,-3.62614 h 2.747635 l -0.327628,1.80454 c -0.07553,0.35517 0.46541,0.45402 0.520382,0.0951 l 0.345715,-1.89963 h 0.572575 c 0.146118,-10e-6 0.264566,-0.11846 0.264583,-0.26458 v -1.5875 c -1.1e-5,-0.14612 -0.118463,-0.26457 -0.264583,-0.26458 h -1.058851 v -2.91145 c 0,-1.31464 -1.066098,-2.38074 -2.380733,-2.38074 z m 0,0.52917 h 8.4666672 c 1.030632,0 1.851568,0.82092 1.851568,1.85156 v 2.91146 h -0.529167 v -2.91146 c 3e-6,-7.9e-4 3e-6,-10e-4 0,-0.002 -0.0098,-0.72394 -0.594069,-1.32033 -1.322401,-1.32033 l -8.4666672,5.7e-4 c -0.728318,0 -1.3223999,0.59357 -1.3223999,1.32188 v 2.91144 h -0.529167 v -2.91145 c 0,-1.03064 0.8209331,-1.85156 1.8515669,-1.85156 z m 0,1.05885 h 8.4666672 c 0.444291,0 0.786656,0.34827 0.792716,0.79685 v 2.90732 H 3.440091 v -2.91146 c 0,-0.4443 0.3489249,-0.79271 0.7932338,-0.79271 z m -3.175,4.23333 h 2.0055631 l 1.058849,1.05834 H 1.0583248 Z m 2.7559061,0 h 1.3678739 l -0.6836799,0.68471 z m 2.6463491,0 h 1.3673587 l -0.6836807,0.68368 z m 2.6447988,0 h 1.3668432 l -0.6836811,0.68316 z m 2.6458332,0 h 1.367875 l -0.684194,0.6842 z m 2.117701,0 h 2.006079 v 1.05834 h -3.064928 z m -5.4022543,0.10956 0.9477452,0.94826 -0.9477452,0.94826 -0.9477459,-0.94774 z m -2.6458338,5.2e-4 0.9487799,0.94826 -0.9487799,0.94878 -0.9492959,-0.9493 z m 5.2911511,5.3e-4 0.949296,0.94723 -0.94878,0.94928 -0.94878,-0.94878 z m -3.9682342,1.32238 0.947746,0.94775 -0.94878,0.94877 -0.9472269,-0.94722 z m 2.6453182,5.3e-4 0.948261,0.94826 -0.9477461,0.94722 -0.9477452,-0.94775 z m -6.348969,1.21181 c -0.3531211,0 -0.3531211,0.52969 0,0.52969 h 1.058852 c 0.3531208,0 0.3531208,-0.52969 0,-0.52969 z m 8.996352,0 c -0.35312,0 -0.35312,0.52969 0,0.52969 h 1.056265 c 0.353121,0 0.353121,-0.52969 0,-0.52969 z m -3.9697843,0.11058 0.9482612,0.94826 -0.9492962,0.9493 -0.9482609,-0.94827 z m 6.0414903,1.69447 -0.04806,0.26458 c -0.06455,0.34807 0.458311,0.44351 0.520898,0.0951 l 0.04806,-0.26458 c 0.06475,-0.35647 -0.457994,-0.44141 -0.520898,-0.0951 z m -8.6873241,0.31212 c 0.3607861,0.008 0.3607861,-0.53726 0,-0.52916 h -1.072028 c -0.3583249,0.0255 -0.331729,0.53935 0.013711,0.52916 z m 6.3500011,0 c 0.360785,0.008 0.360785,-0.53726 0,-0.52916 h -1.071514 c -0.357149,0.0243 -0.332575,0.53784 0.01267,0.52916 z m -7.1447851,1.58802 c 0.3607861,0.008 0.3607861,-0.53727 0,-0.52917 H 3.956082 c -0.358326,0.0255 -0.3317301,0.53936 0.0137,0.52917 z m 2.6463519,0 c 0.3607861,0.008 0.3607861,-0.53727 0,-0.52917 H 6.601396 c -0.35715,0.0243 -0.3325752,0.53785 0.012671,0.52917 z m 2.6468652,0 c 0.360786,0.008 0.360786,-0.53727 0,-0.52917 H 9.2467139 c -0.3583252,0.0255 -0.331729,0.53936 0.013711,0.52917 z m 2.644282,0 c 0.360787,0.008 0.360787,-0.53727 0,-0.52917 h -1.069958 c -0.358325,0.0255 -0.331729,0.53936 0.0137,0.52917 z"/></g><text x="0" y="31.933334" fill="#000000" font-size="5px" font-weight="bold" font-family="'Helvetica Neue', Helvetica, Arial-Unicode, Arial, Sans-serif">Created by Nawicon</text><text x="0" y="36.933334" fill="#000000" font-size="5px" font-weight="bold" font-family="'Helvetica Neue', Helvetica, Arial-Unicode, Arial, Sans-serif">from the Noun Project</text></svg>